<?xml version="1.0" ?><svg viewBox="0 0 512 512" xmlns="http://www.w3.org/2000/svg"><title/><g data-name="1" id="_1"><path fill="#00bbd3" d="M265,352.26c-81.68,0-148.13-66.45-148.13-148.13S183.27,56,265,56s148.13,66.45,148.13,148.13S346.63,352.26,265,352.26ZM265,86A118.13,118.13,0,1,0,383.08,204.13,118.26,118.26,0,0,0,265,86Z"/><path fill="#00bbd3" d="M194.61,450a15,15,0,0,1-13.11-7.71l-21.89-39.36-49.42,3.19a15,15,0,0,1-14.31-21.83L148,282.87a15,15,0,0,1,26.69,13.71l-40,77.9,32.48-2.1a15,15,0,0,1,14.07,7.68l12.87,23.13,36.29-70.64a15,15,0,1,1,26.68,13.71L208,441.85A15,15,0,0,1,194.86,450Z"/><path fill="#00bbd3" d="M335.29,450H335A15,15,0,0,1,322,441.86l-49.14-95.6a15,15,0,1,1,26.68-13.71l36.32,70.65,12.88-23.14a15,15,0,0,1,14.07-7.68l32.47,2.1-40-77.9a15,15,0,1,1,26.68-13.71L434,384.29a15,15,0,0,1-14.3,21.83l-49.42-3.19L348.4,442.29A15,15,0,0,1,335.29,450Z"/><path fill="#00bbd3" d="M271.72,276.11a15,15,0,0,1-15-15V178.64l-27.16,24.69a15,15,0,0,1-20.18-22.2l52.25-47.5a15,15,0,0,1,25.09,11.1V261.11A15,15,0,0,1,271.72,276.11Z"/></g></svg>