<?xml version="1.0" ?><svg viewBox="0 0 512 512" xmlns="http://www.w3.org/2000/svg"><defs><style>.cls-1{fill:none;stroke: #00bbd3;stroke-linecap:round;stroke-linejoin:round;stroke-width:30px;}</style></defs><title/><g data-name="1" id="_1"><circle class="cls-1" cx="201.29" cy="194.7" r="36.03"/><circle class="cls-1" cx="308.97" cy="302.38" r="36.03"/><line class="cls-1" x1="206.2" x2="304.06" y1="321" y2="176.08"/><path class="cls-1" d="M414.52,248.54c0-31.5,16.83-67.82,2.12-93.26-15.19-26.24-55.57-29.62-81.81-44.81-25.44-14.71-48.19-48.4-79.7-48.4s-54.25,33.69-79.69,48.4C149.2,125.66,108.82,129,93.63,155.28c-14.72,25.44,2.12,61.76,2.12,93.26s-16.84,67.81-2.12,93.25c15.19,26.24,55.57,29.63,81.81,44.81,25.44,14.72,48.19,48.4,79.69,48.4s54.26-33.68,79.7-48.4c26.24-15.18,66.62-18.57,81.8-44.81C431.35,316.35,414.52,280,414.52,248.54Z"/></g></svg>