<?xml version="1.0" ?><svg viewBox="0 0 512 512" xmlns="http://www.w3.org/2000/svg"><title/><g data-name="1" id="_1"><path fill="#00bbd3" d="M265.12,450a15,15,0,0,1-7.32-1.91c-41.9-23.41-76.06-54.18-101.54-91.43C135.9,326.88,121.07,293,112.18,255.92c-15.06-62.88-7.84-112.95-7.52-115a15,15,0,0,1,12.15-12.53l8.94-1.63a221.06,221.06,0,0,0,128-73.47,15,15,0,0,1,22.78,0,221.06,221.06,0,0,0,128,73.47l8.95,1.63a15,15,0,0,1,12.15,12.53c.31,2.1,7.54,52.17-7.53,115-8.89,37.07-23.71,71-44.08,100.74-25.47,37.25-59.64,68-101.54,91.43A15,15,0,0,1,265.12,450ZM133.32,155.82a318.22,318.22,0,0,0,8.3,94.18c8.11,33.31,21.5,63.69,39.79,90.28,21.29,31,49.43,57,83.71,77.4,34.49-20.54,62.75-46.74,84.1-78,18.29-26.74,31.64-57.29,39.66-90.79a316.53,316.53,0,0,0,8.06-93.11A251.33,251.33,0,0,1,265.12,85.18,251.35,251.35,0,0,1,133.32,155.82Z"/><path fill="#00bbd3" d="M265.12,317a15,15,0,0,1-12-6l-38.23-51a15,15,0,1,1,24-18l25.68,34.24,55.53-81a15,15,0,0,1,24.75,17l-67.35,98.3A15,15,0,0,1,265.44,317Z"/></g></svg>