<?xml version="1.0" ?><svg enable-background="new 0 0 500 500" id="Layer_1" version="1.1" viewBox="0 0 500 500" xml:space="preserve" xmlns="http://www.w3.org/2000/svg" xmlns:xlink="http://www.w3.org/1999/xlink"><g><g><polygon points="238.8,406 72.1,406 72.1,50.1 255.7,50.1 345.8,140.3 345.8,282.8 318.4,282.8 318.4,151.6 244.3,77.5 99.4,77.5     99.4,378.7 238.8,378.7   "/></g><g><polygon points="332.1,159.6 236.3,159.6 236.3,63.8 263.7,63.8 263.7,132.3 332.1,132.3   "/></g><g><path d="M205.2,450.9l14.5-72.5l138.2-138.2c15.5-15.5,42.5-15.5,58,0c7.8,7.7,12,18,12,29c0,11-4.3,21.3-12,29L277.7,436.4    L205.2,450.9z M244.9,391.8l-4.8,24.1l24.1-4.8l132.4-132.4c2.6-2.6,4-6,4-9.7c0-3.6-1.4-7.1-4-9.6c-5.2-5.2-14.1-5.2-19.3,0    L244.9,391.8z"/></g><g><rect height="27.4" width="156.8" x="130.9" y="187"/></g><g><rect height="27.4" width="156.8" x="130.9" y="241.8"/></g><g><rect height="27.4" width="156.8" x="130.9" y="296.5"/></g></g></svg>