<?xml version="1.0" ?><svg enable-background="new 0 0 500 500" id="Layer_1" version="1.1" viewBox="0 0 500 500" xml:space="preserve" xmlns="http://www.w3.org/2000/svg" xmlns:xlink="http://www.w3.org/1999/xlink"><g><g><polygon fill="#00bbd3" points="163.9,246.5 144.5,227.1 167.9,203.8 167.9,141 195.2,141 195.2,215.1   "/></g><g><polygon fill="#00bbd3" points="427.9,414.8 126.8,414.8 126.8,282.9 154.2,282.9 154.2,387.4 400.6,387.4 400.6,223.1 273.8,223.1 273.8,195.7     427.9,195.7   "/></g><g><polygon fill="#00bbd3" points="427.9,223.1 400.6,223.1 400.6,168.4 276.3,168.4 276.3,141 427.9,141   "/></g><g><path fill="#00bbd3" d="M181.6,305.3c-60.4,0-109.5-49.1-109.5-109.5S121.2,86.2,181.6,86.2s109.5,49.1,109.5,109.5S241.9,305.3,181.6,305.3z     M181.6,113.6c-45.3,0-82.1,36.8-82.1,82.1s36.8,82.1,82.1,82.1s82.1-36.8,82.1-82.1S226.8,113.6,181.6,113.6z"/></g><g><rect fill="#00bbd3" height="27.4" width="27.4" x="345.8" y="332.6"/></g><g><rect fill="#00bbd3" height="27.4" width="27.4" x="345.8" y="277.9"/></g><g><rect fill="#00bbd3" height="27.4" width="27.4" x="291.1" y="277.9"/></g><g><rect fill="#00bbd3" height="27.4" width="27.4" x="291.1" y="332.6"/></g><g><rect fill="#00bbd3" height="27.4" width="27.4" x="236.3" y="332.6"/></g><g><rect fill="#00bbd3" height="27.4" width="27.4" x="181.6" y="332.6"/></g></g></svg>